<svg xmlns="http://www.w3.org/2000/svg" viewBox="0 0 1024 1024">
  <defs>
    <linearGradient id="bg" x1="176" y1="88" x2="872" y2="936" gradientUnits="userSpaceOnUse">
      <stop offset="0" stop-color="#182330"/>
      <stop offset="0.45" stop-color="#0A0D12"/>
      <stop offset="1" stop-color="#030507"/>
    </linearGradient>
    <radialGradient id="halo" cx="50%" cy="36%" r="58%">
      <stop offset="0" stop-color="#365167" stop-opacity="0.58"/>
      <stop offset="0.46" stop-color="#263647" stop-opacity="0.22"/>
      <stop offset="1" stop-color="#030507" stop-opacity="0"/>
    </radialGradient>
    <linearGradient id="chrome" x1="292" y1="218" x2="754" y2="804" gradientUnits="userSpaceOnUse">
      <stop offset="0" stop-color="#F0F3F5"/>
      <stop offset="0.28" stop-color="#B8C2CC"/>
      <stop offset="0.62" stop-color="#5E7FA4"/>
      <stop offset="1" stop-color="#E4E9EE"/>
    </linearGradient>
    <linearGradient id="steel" x1="372" y1="324" x2="664" y2="706" gradientUnits="userSpaceOnUse">
      <stop offset="0" stop-color="#B8C2CC"/>
      <stop offset="1" stop-color="#5E7FA4"/>
    </linearGradient>
    <filter id="softShadow" x="-20%" y="-20%" width="140%" height="140%">
      <feDropShadow dx="0" dy="30" stdDeviation="32" flood-color="#000000" flood-opacity="0.48"/>
    </filter>
  </defs>

  <rect width="1024" height="1024" rx="224" fill="url(#bg)"/>
  <rect width="1024" height="1024" rx="224" fill="url(#halo)"/>
  <path d="M176 184C314 109 530 91 706 142C558 149 378 196 244 287C202 315 171 290 176 184Z" fill="#FFFFFF" opacity="0.07"/>
  <path d="M824 152C750 330 658 480 502 654C428 736 354 790 246 842C404 841 583 757 718 618C838 494 895 326 824 152Z" fill="#FFFFFF" opacity="0.045"/>

  <g filter="url(#softShadow)">
    <circle cx="512" cy="512" r="286" fill="#0B1118" stroke="url(#chrome)" stroke-width="28"/>
    <circle cx="512" cy="512" r="224" fill="#111820" stroke="#FFFFFF" stroke-width="10" stroke-opacity="0.12"/>
    <path d="M404 338L682 512L404 686Z" fill="url(#steel)"/>
    <path d="M430 398L604 512L430 626Z" fill="#F0F3F5" opacity="0.18"/>
    <path d="M320 698C410 620 458 566 512 458C566 566 614 620 704 698" fill="none" stroke="url(#chrome)" stroke-width="34" stroke-linecap="round" stroke-linejoin="round" opacity="0.96"/>
    <path d="M512 444V298" fill="none" stroke="#B8C2CC" stroke-width="28" stroke-linecap="round" opacity="0.9"/>
    <path d="M364 738H660" fill="none" stroke="#F0F3F5" stroke-width="14" stroke-linecap="round" opacity="0.35"/>
  </g>

  <path d="M264 512H332M692 512H760" stroke="#B8C2CC" stroke-width="18" stroke-linecap="round" opacity="0.44"/>
  <path d="M512 172V220M512 804V852" stroke="#B8C2CC" stroke-width="14" stroke-linecap="round" opacity="0.34"/>
</svg>
